HIERARCHY
ROOT Hips
{
 OFFSET 0.000000 0.000000 0.000000
 CHANNELS 6 Xposition Yposition Zposition Yrotation Xrotation Zrotation
 JOINT Chest
 {
  OFFSET 0.000000 14.374500 -0.011500
  CHANNELS 3 Yrotation Xrotation Zrotation
  JOINT Chest2
  {
   OFFSET 0.000000 9.203400 0.023400
   CHANNELS 3 Yrotation Xrotation Zrotation
   JOINT Chest3
   {
    OFFSET 0.000000 9.162700 0.000000
    CHANNELS 3 Yrotation Xrotation Zrotation
    JOINT Chest4
    {
     OFFSET 0.000000 9.153300 0.000000
     CHANNELS 3 Yrotation Xrotation Zrotation
     JOINT Neck
     {
      OFFSET 0.000000 13.353600 0.000000
      CHANNELS 3 Yrotation Xrotation Zrotation
      JOINT Head
      {
       OFFSET 0.000000 8.573800 0.049400
       CHANNELS 3 Yrotation Xrotation Zrotation
       End Site
       {
        OFFSET 0.000000 16.219200 0.026100
       }
      }
     }
     JOINT RightCollar
     {
      OFFSET -2.497100 8.876100 0.000000
      CHANNELS 3 Yrotation Xrotation Zrotation
      JOINT RightShoulder
      {
       OFFSET -12.289200 0.000000 0.000000
       CHANNELS 3 Yrotation Xrotation Zrotation
       JOINT RightElbow
       {
        OFFSET 0.000000 -28.194900 0.000000
        CHANNELS 3 Yrotation Xrotation Zrotation
        JOINT RightWrist
        {
         OFFSET 0.000000 -23.009700 0.007900
         CHANNELS 3 Yrotation Xrotation Zrotation
         End Site
         {
          OFFSET 0.000000 -17.151500 0.000000
         }
        }
       }
      }
     }
     JOINT LeftCollar
     {
      OFFSET 2.497100 8.876100 0.000000
      CHANNELS 3 Yrotation Xrotation Zrotation
      JOINT LeftShoulder
      {
       OFFSET 12.289200 0.000000 0.000000
       CHANNELS 3 Yrotation Xrotation Zrotation
       JOINT LeftElbow
       {
        OFFSET 0.000000 -28.194900 0.000000
        CHANNELS 3 Yrotation Xrotation Zrotation
        JOINT LeftWrist
        {
         OFFSET 0.000000 -23.009700 0.007900
         CHANNELS 3 Yrotation Xrotation Zrotation
         End Site
         {
          OFFSET 0.000000 -17.151500 0.000000
         }
        }
       }
      }
     }
    }
   }
  }
 }
 JOINT RightHip
 {
  OFFSET -11.777600 0.056700 0.005700
  CHANNELS 3 Yrotation Xrotation Zrotation
  JOINT RightKnee
  {
   OFFSET 0.000000 -39.966000 -0.004200
   CHANNELS 3 Yrotation Xrotation Zrotation
   JOINT RightAnkle
   {
    OFFSET 0.000000 -41.981900 0.027400
    CHANNELS 3 Yrotation Xrotation Zrotation
    JOINT RightToe
    {
     OFFSET 0.000000 -9.910600 16.950100
     CHANNELS 3 Yrotation Xrotation Zrotation
     End Site
     {
      OFFSET 0.000000 -1.461000 6.191600
     }
    }
   }
  }
 }
 JOINT LeftHip
 {
  OFFSET 11.777600 0.056700 0.005700
  CHANNELS 3 Yrotation Xrotation Zrotation
  JOINT LeftKnee
  {
   OFFSET 0.000000 -39.966000 -0.004200
   CHANNELS 3 Yrotation Xrotation Zrotation
   JOINT LeftAnkle
   {
    OFFSET 0.000000 -41.981900 0.027400
    CHANNELS 3 Yrotation Xrotation Zrotation
    JOINT LeftToe
    {
     OFFSET 0.000000 -9.910600 16.950100
     CHANNELS 3 Yrotation Xrotation Zrotation
     End Site
     {
      OFFSET 0.000000 -1.461000 6.191600
     }
    }
   }
  }
 }
}
MOTION
Frames: 5
Frame Time: 0.008333
0.000000 91.618700 0.000000 0.000000 -5.767877 0.000000 0.000000 11.653817 0.000000 0.000000 -5.885947 0.000000 0.000000 -0.000000 0.000000 0.000000 -0.000000 0.000000 0.000000 12.528835 0.000000 0.000000 0.711642 0.000000 0.000000 -0.000000 0.000000 0.000000 0.000000 -90.000000 0.000000 -2.309062 0.000000 0.000000 2.309062 0.000000 0.000000 -0.000000 0.000000 0.000000 -0.000000 90.000000 0.000000 -2.309062 0.000000 0.000000 2.309062 0.000000 0.000000 8.520406 0.000000 0.000000 1.905762 0.000000 -0.000000 -4.658285 0.000000 0.000000 -0.000000 0.000000 0.000000 8.520406 0.000000 0.000000 1.905762 0.000000 -0.000000 -4.658285 0.000000 0.000000 -0.000000 0.000000
-4.599573 152.709072 86.578276 172.780921 -52.800431 -2.227354 4.509941 28.718066 3.809694 0.636074 5.362657 0.570742 1.024391 8.405987 0.924544 3.276176 23.036584 3.028475 4.170294 13.177282 -1.930735 4.899021 -11.767720 -3.037450 1.204634 -3.407986 -0.733003 6.517754 -14.525283 -6.383965 33.661170 -68.063702 -19.433682 28.302374 36.723012 -7.350741 -12.536150 -7.207864 -0.335286 -5.331283 -18.726825 6.346624 -20.751558 -54.591306 1.087820 -20.477248 9.106045 16.613964 6.507545 -25.038673 0.625017 -59.708856 86.808749 -61.796164 4.597505 -23.938074 8.131477 0.066748 -0.204656 0.039601 1.158955 -18.594919 -2.265353 138.591230 72.038790 150.219610 2.277941 -13.056427 -9.866154 0.144065 -4.620928 -0.926337
-5.175721 145.656582 87.876756 172.964472 -52.740879 -2.481745 4.451377 28.647821 3.937911 0.637008 5.361527 0.565040 1.022813 8.397994 0.926334 3.273853 23.027383 3.034735 4.345416 13.052240 -1.944107 5.102627 -11.891511 -3.102752 1.197040 -3.406927 -0.733342 6.505829 -14.515616 -6.367477 33.703280 -68.029632 -19.448740 28.310961 36.722897 -7.352178 -12.507157 -7.243747 -0.307214 -5.313699 -18.656832 6.260855 -20.904598 -54.524610 1.239709 -20.421952 9.009198 16.651236 6.347503 -25.135022 0.737424 -60.317125 86.828778 -62.407601 4.632869 -24.031640 8.140809 0.029074 -0.134920 0.016995 1.012637 -18.642240 -2.153311 138.557794 72.056164 150.188038 2.330335 -12.995367 -9.829184 0.048887 0.090250 0.028586
-5.655989 139.850722 88.942709 173.091560 -52.698663 -2.648505 4.405380 28.600361 4.013827 0.633373 5.344251 0.576518 1.018477 8.386197 0.927213 3.266805 23.003223 3.049320 4.521826 12.977794 -1.978464 5.304854 -11.994468 -3.168949 1.182045 -3.404171 -0.746266 6.518715 -14.466174 -6.368252 33.727347 -67.997137 -19.452530 28.302623 36.716420 -7.369612 -12.470075 -7.265975 -0.305901 -5.282697 -18.545386 6.153285 -21.055378 -54.516685 1.379783 -20.403453 8.942386 16.686423 6.244695 -25.206869 0.803408 -60.879002 86.846110 -62.967260 4.640845 -24.103361 8.148253 0.010960 -0.078560 0.006406 0.917909 -18.676064 -2.091975 138.522001 72.064867 150.155482 2.362270 -12.936588 -9.818006 0.018769 0.047247 0.010976
-6.006582 135.660538 89.708460 173.153957 -52.677746 -2.730320 4.383216 28.577377 4.050511 0.636661 5.332319 0.584448 1.016770 8.370005 0.932166 3.265032 22.996069 3.054686 4.693500 12.899812 -1.998893 5.503087 -12.071105 -3.236266 1.151923 -3.482278 -0.730445 6.538029 -14.357340 -6.371818 33.752715 -67.974160 -19.463953 28.305152 36.717945 -7.380196 -12.459821 -7.272766 -0.304773 -5.282811 -18.501309 6.114966 -21.121838 -54.478570 1.450618 -20.376899 8.874791 16.730502 6.196405 -25.244370 0.835899 -61.253717 86.854787 -63.339067 4.636972 -24.141969 8.153348 0.005317 -0.049790 0.003109 0.871159 -18.690087 -2.059630 138.504391 72.068566 150.136397 2.367597 -12.904978 -9.812141 0.011708 0.021015 0.006846
